<svg width="512" height="512" viewBox="0 0 512 512" fill="none" xmlns="http://www.w3.org/2000/svg">
  <rect width="512" height="512" rx="112" fill="url(#bg)"/>
  <path d="M128 326L241 96L356 326" stroke="url(#blue)" stroke-width="38" stroke-linecap="round" stroke-linejoin="round"/>
  <path d="M174 250C224 205 326 200 370 241C421 289 348 349 242 337C141 326 76 288 108 240C128 211 181 202 237 217" stroke="url(#purple)" stroke-width="22" stroke-linecap="round"/>
  <circle cx="190" cy="344" r="42" fill="url(#dot)"/>
  <circle cx="210" cy="226" r="12" fill="#050608"/>
  <path d="M226 218L288 194" stroke="#050608" stroke-width="18" stroke-linecap="round"/>
  <defs>
    <linearGradient id="bg" x1="46" y1="42" x2="448" y2="472" gradientUnits="userSpaceOnUse">
      <stop stop-color="#111827"/>
      <stop offset="0.55" stop-color="#0F1116"/>
      <stop offset="1" stop-color="#1B1238"/>
    </linearGradient>
    <linearGradient id="blue" x1="128" y1="96" x2="356" y2="326" gradientUnits="userSpaceOnUse">
      <stop stop-color="#38BDF8"/>
      <stop offset="0.48" stop-color="#3882F6"/>
      <stop offset="1" stop-color="#8B5CF6"/>
    </linearGradient>
    <linearGradient id="purple" x1="96" y1="212" x2="394" y2="339" gradientUnits="userSpaceOnUse">
      <stop stop-color="#8B5CF6"/>
      <stop offset="0.45" stop-color="#6D5AF6"/>
      <stop offset="1" stop-color="#8B5CF6"/>
    </linearGradient>
    <linearGradient id="dot" x1="160" y1="306" x2="229" y2="381" gradientUnits="userSpaceOnUse">
      <stop stop-color="#8B5CF6"/>
      <stop offset="1" stop-color="#6D5AF6"/>
    </linearGradient>
  </defs>
</svg>
